<svg id="Layer_1" data-name="Layer 1" xmlns="http://www.w3.org/2000/svg" xmlns:xlink="http://www.w3.org/1999/xlink" viewBox="0 0 319.24 78.31"><defs><style>.cls-1{fill:none;}.cls-2{fill:#fff;}.cls-3{clip-path:url(#clip-path);}.cls-4{fill:#231f20;}.cls-5{fill:#6d6e71;}.cls-6{fill:#faa61a;}.cls-7{clip-path:url(#clip-path-2);}</style><clipPath id="clip-path" transform="translate(-327.02 -358.79)"><rect class="cls-1" x="559.54" y="358.79" width="86.72" height="78.31"/></clipPath><clipPath id="clip-path-2" transform="translate(-327.02 -358.79)"><rect class="cls-1" x="327.02" y="381.06" width="217.53" height="48.09"/></clipPath></defs><path class="cls-2" d="M580.15,421.52a5,5,0,0,1-3.51-8.48l12.55-12.55c5.39-5.39,12-7.13,18.7-4.91a22.31,22.31,0,0,1,8.13,4.91L628.57,413a5,5,0,0,1-6,8,4.74,4.74,0,0,1-1-1L609,407.49c-1.5-1.45-7-5.82-12.77,0L583.7,420.06A5,5,0,0,1,580.15,421.52Z" transform="translate(-327.02 -358.79)"/><g class="cls-3"><path class="cls-4" d="M619.39,396.74c1.38,0,2.77,0,4.15,0,.53,0,.69-.12.69-.66,0-2.84,0-5.67,0-8.51,0-.42-.13-.51-.52-.51-2.87,0-5.73,0-8.59,0-.5,0-.58.17-.58.61q0,4.26,0,8.52c0,.45.14.56.58.55,1.43,0,2.86,0,4.29,0m-13.31-9.66c-1.43,0-2.86,0-4.29,0-.46,0-.61.11-.61.59q0,4.21,0,8.44c0,.54.17.68.69.67,2.79,0,5.58,0,8.37,0,.51,0,.65-.15.64-.64q0-4.26,0-8.52c0-.46-.16-.54-.58-.54-1.41,0-2.81,0-4.22,0m8.46,18.34c0,1.43,0,2.86,0,4.29,0,.4.06.59.54.59,2.86,0,5.72,0,8.58,0,.45,0,.58-.15.58-.57q0-4.31,0-8.59c0-.47-.17-.54-.59-.54-2.86,0-5.72,0-8.58,0-.42,0-.54.12-.53.52,0,1.43,0,2.86,0,4.3m-13.42.85c-6.07-7.35-7-20.69,2-29.72a22.74,22.74,0,1,1,32.09,32.22c-9.33,9.1-22.76,7.85-30,1.64.1-.22.29-.12.44-.12,1.55,0,3.1,0,4.65,0,.51,0,.65-.16.64-.65,0-2.82,0-5.64,0-8.45,0-.39,0-.61-.54-.6-2.89,0-5.78,0-8.66,0-.5,0-.49.24-.49.57,0,1.48,0,3,0,4.44,0,.23.1.47-.07.68" transform="translate(-327.02 -358.79)"/><path class="cls-5" d="M645.9,399.35a.69.69,0,0,1,.34.79q0,15,0,30.07c0,.68-.14.85-.85.85q-27.85,0-55.72,0h-.9c-.07-.29.19-.37.33-.5,4.8-4.82,9.62-9.62,14.4-14.44.42-.42.7-.24,1,0a25.51,25.51,0,0,0,8.81,3.6,27.65,27.65,0,0,0,31.61-17c.21-.53.38-1.08.56-1.62a3.87,3.87,0,0,0,.37-1.66" transform="translate(-327.02 -358.79)"/><path class="cls-6" d="M593.5,370.19l9.18-5.27c3.44-2,6.87-3.93,10.3-5.91a1.2,1.2,0,0,1,1.38,0c3.07,1.79,6.15,3.56,9.23,5.34.71.41,1.44.79,2.24,1.24a.77.77,0,0,1-.68.06,27.4,27.4,0,0,0-25.36,7.27,29.68,29.68,0,0,0-4.27,5.4,27.68,27.68,0,0,0-3.64,18.43,27,27,0,0,0,3.19,9.26,21.61,21.61,0,0,0,2.23,3.37c.27.33.4.58,0,1q-5.5,5.49-11,11-5.73,5.73-11.45,11.45c-1.33,1.32-2.67,2.63-4,4-.37.37-.65.49-1,0a6.89,6.89,0,0,0-1-1c-.36-.29-.31-.52,0-.81q1.6-1.56,3.19-3.15l6.64-6.62c.65-.65,1.28-1.33,2-2a1.48,1.48,0,0,0,.48-1.2q0-14.66,0-29.29c0-.77,0-1.53,0-2.3,0-.43-.14-.59-.58-.58-1,0-2.1,0-3.15,0H559.6l-.06-.2c1.28-.75,2.55-1.52,3.84-2.26l15.26-8.75c.87-.49,1.73-1,2.61-1.46" transform="translate(-327.02 -358.79)"/></g><g class="cls-7"><path class="cls-5" d="M530.41,427.45a5.74,5.74,0,0,0,1.7-4.23,5.81,5.81,0,0,0-5.87-5.87,5.73,5.73,0,0,0-4.22,1.7,5.61,5.61,0,0,0-1.72,4.17,5.95,5.95,0,0,0,10.11,4.23m-18.92-23.91a3.23,3.23,0,0,0-1,.2c-.41.13-.62.32-.62.56v8.24c0,.16.18.34.55.54a2.27,2.27,0,0,0,1.08.3h33.06v-9.84h-2.61c-1.91,0-3.15-.37-3.73-1.1a2.89,2.89,0,0,1-.8-1.35,12.33,12.33,0,0,1-.37-1.85,12.81,12.81,0,0,0-.81-2.91,10.07,10.07,0,0,0-1.39-2.3A10.49,10.49,0,0,0,531,391a11.24,11.24,0,0,0-4.89-1.16H515v9.44h8.54a3.45,3.45,0,0,1,1.72.41,3.72,3.72,0,0,1,1.15,1,5.11,5.11,0,0,1,.9,2.94Zm.07,9.84v-9.84H471.87a3.29,3.29,0,0,0-1,.2c-.41.13-.61.32-.61.56v8.24c0,.16.18.34.55.54a2.24,2.24,0,0,0,1.08.3Zm-76-23.92h17.48v-8.4H435.58Zm36.29,23.92v-9.84h-1a2.64,2.64,0,0,1-2.18-1.05,3.89,3.89,0,0,1-.68-2.29v-3.77h-9.78v3.77a3.75,3.75,0,0,1-.75,2.39,2.48,2.48,0,0,1-2.05,1H435.18a2.3,2.3,0,0,1-2.32-1.17,5.23,5.23,0,0,1-.55-2.17v-3.77h-9.83v7.31q0,9.63,10.7,9.64h22.28a14.16,14.16,0,0,0,6.77-1.5,3.48,3.48,0,0,0,.5-.3,5.56,5.56,0,0,0,.47-.4,3.68,3.68,0,0,0,1,.7,13.29,13.29,0,0,0,6.7,1.5Zm-71.81-9.84a3,3,0,0,1,1.05-2.32,3.45,3.45,0,0,1,2.36-1,3.39,3.39,0,0,1,2.35,1,3.06,3.06,0,0,1,1.05,2.29Zm-1.51-10.38a11.81,11.81,0,0,0-3.86,3.27,12.84,12.84,0,0,0-2.11,4.37,17.28,17.28,0,0,0-.66,4.57,17.47,17.47,0,0,0,.66,5.05,14.37,14.37,0,0,0,1.11,3h9.51a13.39,13.39,0,0,1-3,2.9,32.72,32.72,0,0,1-3.6,2.1L398,420c.52.61,1.08,1.25,1.67,1.92s1.15,1.33,1.7,2,1.07,1.26,1.58,1.82a27.23,27.23,0,0,0,9.89-9,20.54,20.54,0,0,0,3.29-11.06,17.44,17.44,0,0,0-.55-3.63,16.39,16.39,0,0,0-1.89-4.59,13.18,13.18,0,0,0-3.62-3.92,9.39,9.39,0,0,0-5.68-1.67,12.09,12.09,0,0,0-5.82,1.3m-26.47,34.29a5.74,5.74,0,0,0,1.7-4.23,5.81,5.81,0,0,0-5.87-5.87,5.75,5.75,0,0,0-4.22,1.7,5.65,5.65,0,0,0-1.72,4.17,5.84,5.84,0,0,0,5.94,5.93,5.63,5.63,0,0,0,4.17-1.7m-18.91-23.91a3.24,3.24,0,0,0-1,.2c-.41.13-.61.32-.61.56v8.24c0,.16.18.34.55.54a2.21,2.21,0,0,0,1.08.3h33.05v-9.84h-2.6c-1.91,0-3.16-.37-3.74-1.1a3.06,3.06,0,0,1-.8-1.35,13.81,13.81,0,0,1-.36-1.85,12.31,12.31,0,0,0-.82-2.91,10.69,10.69,0,0,0-5.24-5.37,11.23,11.23,0,0,0-4.88-1.16H356.64v9.44h8.54a3.43,3.43,0,0,1,1.71.41,3.61,3.61,0,0,1,1.15,1,5,5,0,0,1,.9,2.94Zm-17.94,0a3,3,0,0,1,1-2.32,3.31,3.31,0,0,1,4.67,0,3.12,3.12,0,0,1,1,2.29Zm18,9.84v-9.84H351a19.84,19.84,0,0,0-1-3.65,14.79,14.79,0,0,0-2.11-3.82,11.79,11.79,0,0,0-3.42-3,9.5,9.5,0,0,0-4.92-1.21,11.64,11.64,0,0,0-9.71,4.57,12.57,12.57,0,0,0-2.15,4.37,18.08,18.08,0,0,0,0,9.62,11.69,11.69,0,0,0,1.18,3h9.51a13.35,13.35,0,0,1-3,2.9,33.84,33.84,0,0,1-3.61,2.1l1.42,1.65c.52.61,1.07,1.25,1.63,1.92l1.67,2c.55.66,1.08,1.26,1.59,1.82a29.55,29.55,0,0,0,7.17-5.6,23.11,23.11,0,0,0,4.37-6.77Z" transform="translate(-327.02 -358.79)"/></g></svg>